<svg xmlns="http://www.w3.org/2000/svg" viewBox="1744.102 200.102 13.797 13.797">
  <defs>
    <style>
      .cls-1 {
        fill: none;
      }

      .cls-2 {
        fill: #445d7b;
      }
    </style>
  </defs>
  <g id="ic_contact_phone_black_24px_1_" data-name="ic_contact_phone_black_24px (1)" transform="translate(1744.102 200.102)">
    <path id="Path_1765" data-name="Path 1765" class="cls-1" d="M0,0H13.8V13.8H0Z"/>
    <path id="Path_1766" data-name="Path 1766" class="cls-2" d="M12.647,3H1.15A1.153,1.153,0,0,0,0,4.15V12.2a1.153,1.153,0,0,0,1.15,1.15h11.5a1.148,1.148,0,0,0,1.144-1.15L13.8,4.15A1.153,1.153,0,0,0,12.647,3ZM4.6,4.725A1.725,1.725,0,1,1,2.874,6.449,1.722,1.722,0,0,1,4.6,4.725Zm3.449,6.9H1.15v-.575c0-1.15,2.3-1.782,3.449-1.782s3.449.632,3.449,1.782Zm2.213-2.3H11.2l.868,1.15-1.144,1.144A4.318,4.318,0,0,1,9.359,9.324a4.187,4.187,0,0,1,0-2.3A4.3,4.3,0,0,1,10.928,4.73l1.144,1.144L11.2,7.024h-.943a3.386,3.386,0,0,0,0,2.3Z" transform="translate(0 -1.275)"/>
  </g>
</svg>
