<svg xmlns="http://www.w3.org/2000/svg" viewBox="1742.102 286.102 17.797 17.797">
  <defs>
    <style>
      .cls-1 {
        fill: #364778;
      }

      .cls-2 {
        fill: none;
      }
    </style>
  </defs>
  <g id="ic_directions_car_black_24px" transform="translate(1742.102 286.102)">
    <path id="Path_1774" data-name="Path 1774" class="cls-1" d="M14.805,5.749A1.108,1.108,0,0,0,13.752,5H5.6a1.115,1.115,0,0,0-1.053.749L3,10.191v5.932a.744.744,0,0,0,.742.742h.742a.744.744,0,0,0,.742-.742v-.742h8.9v.742a.744.744,0,0,0,.742.742h.742a.744.744,0,0,0,.742-.742V10.191ZM5.6,13.157a1.112,1.112,0,1,1,1.112-1.112A1.111,1.111,0,0,1,5.6,13.157Zm8.157,0a1.112,1.112,0,1,1,1.112-1.112A1.111,1.111,0,0,1,13.752,13.157ZM4.483,9.449,5.6,6.112h8.157l1.112,3.337Z" transform="translate(-0.775 -1.292)"/>
    <path id="Path_1775" data-name="Path 1775" class="cls-2" d="M0,0H17.8V17.8H0Z"/>
  </g>
</svg>
