<svg xmlns="http://www.w3.org/2000/svg" viewBox="3262.661 324.661 34.677 34.677">
  <defs>
    <style>
      .cls-1 {
        fill: none;
      }

      .cls-2 {
        fill: #a4d55d;
      }
    </style>
  </defs>
  <g id="ic_android_black_24px" transform="translate(3262.661 324.661)">
    <path id="Path_186" data-name="Path 186" class="cls-1" d="M0,0H34.677V34.677H0Z" transform="translate(0 0)"/>
    <path id="Path_187" data-name="Path 187" class="cls-2" d="M7.78,26.008a1.449,1.449,0,0,0,1.445,1.445h1.445V32.51a2.167,2.167,0,0,0,4.335,0V27.453h2.89V32.51a2.167,2.167,0,1,0,4.335,0V27.453h1.445a1.449,1.449,0,0,0,1.445-1.445V11.559H7.78ZM4.167,11.559A2.164,2.164,0,0,0,2,13.726V23.841a2.167,2.167,0,1,0,4.335,0V13.726A2.164,2.164,0,0,0,4.167,11.559Zm24.563,0a2.164,2.164,0,0,0-2.167,2.167V23.841a2.167,2.167,0,0,0,4.335,0V13.726A2.164,2.164,0,0,0,28.73,11.559ZM21.549,3.121l1.878-1.878a.715.715,0,0,0,0-1.026.715.715,0,0,0-1.026,0L20.263,2.355a8.437,8.437,0,0,0-3.814-.91,8.559,8.559,0,0,0-3.843.91L10.453.217a.715.715,0,0,0-1.026,0,.715.715,0,0,0,0,1.026l1.893,1.893a8.645,8.645,0,0,0-3.54,6.979H25.118a8.619,8.619,0,0,0-3.569-6.993Zm-7.99,4.1H12.114V5.78h1.445Zm7.224,0H19.339V5.78h1.445Z" transform="translate(0.89 0)"/>
  </g>
</svg>
