<svg xmlns="http://www.w3.org/2000/svg" viewBox="376.999 592 51.213 51.213">
  <defs>
    <style>
      .cls-1 {
        fill: #fff;
      }
    </style>
  </defs>
  <g id="calendar-with-a-clock-time-tools" transform="translate(376.998 592)">
    <path id="Path_137" data-name="Path 137" class="cls-1" d="M6.4,8V1.6a1.6,1.6,0,0,1,3.2,0V8A1.6,1.6,0,0,1,6.4,8ZM33.61,9.6A1.6,1.6,0,0,0,35.21,8V1.6a1.6,1.6,0,0,0-3.2,0V8A1.6,1.6,0,0,0,33.61,9.6Zm17.6,28.807a12.8,12.8,0,1,1-12.8-12.8A12.8,12.8,0,0,1,51.214,38.409Zm-3.2,0a9.6,9.6,0,1,0-9.6,9.6A9.613,9.613,0,0,0,48.013,38.409ZM12.8,19.2H6.4v6.4h6.4Zm-6.4,16h6.4v-6.4H6.4Zm9.6-9.6h6.4V19.2H16Zm0,9.6h6.4v-6.4H16ZM3.2,38.091V16H38.411v6.4h3.2V9.921A3.492,3.492,0,0,0,38.145,6.4H36.81V8a3.2,3.2,0,1,1-6.4,0V6.4H11.2V8A3.2,3.2,0,1,1,4.8,8V6.4H3.469A3.494,3.494,0,0,0,0,9.921v28.17a3.5,3.5,0,0,0,3.468,3.52H22.407v-3.2H3.469A.3.3,0,0,1,3.2,38.091ZM32.009,25.606V19.2h-6.4v6.4Zm11.2,12.8h-4.8v-4.8a1.6,1.6,0,0,0-3.2,0v6.4a1.6,1.6,0,0,0,1.6,1.6h6.4a1.6,1.6,0,0,0,0-3.2Z"/>
  </g>
</svg>
