<svg id="Group_243" data-name="Group 243" xmlns="http://www.w3.org/2000/svg" viewBox="1147.086 76.819 32.16 55.361">
  <defs>
    <style>
      .cls-1 {
        fill: #fff;
      }
    </style>
  </defs>
  <path id="Path_121" data-name="Path 121" class="cls-1" d="M20.418,9.608H16.013V3H9.405V9.608H5l7.709,7.709ZM5,19.519v2.2H20.418v-2.2Z" transform="translate(1150.291 92.806)"/>
  <g id="Group_74" data-name="Group 74" transform="translate(504.484 2.554)">
    <g id="Group_73" data-name="Group 73" transform="translate(642.602 74.266)">
      <g id="smartphone-call" transform="translate(0)">
        <path id="Path_125" data-name="Path 125" class="cls-1" d="M35.755,0H11.073A3.75,3.75,0,0,0,7.334,3.739V51.62a3.751,3.751,0,0,0,3.739,3.741H35.755a3.749,3.749,0,0,0,3.739-3.739V3.739A3.75,3.75,0,0,0,35.755,0ZM19.466,2.7h7.9a.453.453,0,0,1,0,.906h-7.9a.453.453,0,0,1,0-.906Zm3.948,50.8a1.87,1.87,0,1,1,1.87-1.871A1.87,1.87,0,0,1,23.414,53.492Zm13.478-5.051H9.936V5.93H36.892Z" transform="translate(-7.334)"/>
      </g>
    </g>
  </g>
</svg>
