<svg xmlns="http://www.w3.org/2000/svg" viewBox="1609.5 326.709 39.58 30.657">
  <defs>
    <style>
      .cls-1 {
        fill: #e70095;
      }
    </style>
  </defs>
  <g id="user-login-button" transform="translate(1609.5 282.457)">
    <g id="Group_246" data-name="Group 246" transform="translate(0 44.252)">
      <path id="Path_696" data-name="Path 696" class="cls-1" d="M1.712,179.318a1.712,1.712,0,1,0,0,3.424H8.921v-3.424Z" transform="translate(0 -165.701)"/>
      <path id="Path_697" data-name="Path 697" class="cls-1" d="M113.437,44.252H94.19a5.712,5.712,0,0,0-5.707,5.705v7.911h15.422l-3.3-3.3a1.712,1.712,0,1,1,2.422-2.421l6.221,6.221a1.708,1.708,0,0,1,.368.549,1.73,1.73,0,0,1,.134.663,1.692,1.692,0,0,1-.127.646,1.743,1.743,0,0,1-.37.561l-6.226,6.225a1.713,1.713,0,0,1-2.422-2.422l3.3-3.3H88.483V69.2a5.712,5.712,0,0,0,5.707,5.7h19.247a5.711,5.711,0,0,0,5.705-5.7V49.958A5.711,5.711,0,0,0,113.437,44.252Z" transform="translate(-79.562 -44.252)"/>
    </g>
  </g>
</svg>
