<svg xmlns="http://www.w3.org/2000/svg" viewBox="1689.755 326.282 39.687 32.057">
  <defs>
    <style>
      .cls-1 {
        fill: #65bbf2;
      }
    </style>
  </defs>
  <path id="twitter" class="cls-1" d="M27.7,49.172a8.559,8.559,0,0,0-8.223,8.641v1.115C11.252,57.465,7.21,55.235,2.75,50.566.1,55.723,3.029,60.043,6.235,62.413c-2.16,0-3.972-.279-5.366-1.533-.139-.07-.279,0-.209.139a12.952,12.952,0,0,0,8.363,8.363c-2.857,0-4.739.418-6.76-.836-.139-.07-.279,0-.209.139,1.533,4.251,4.6,5.575,9.06,5.575C8.883,75.933,5.886,77.605.241,77.744a.23.23,0,0,0-.139.418C2.193,79.9,7.35,81.229,14.6,81.229c11.917,0,21.6-10.593,21.6-23.694v-.7A6.094,6.094,0,0,0,39.685,52.8a.15.15,0,0,0-.139-.139L35.574,54.05a.134.134,0,0,1-.07-.209,10.662,10.662,0,0,0,3.485-4.6.243.243,0,0,0-.139-.07c-1.882.767-3.694,1.533-5.087,1.951a.825.825,0,0,1-.7-.07c-.906-.488-3.624-1.882-5.366-1.882" transform="translate(1689.757 277.11)"/>
</svg>
