<svg xmlns="http://www.w3.org/2000/svg" viewBox="1319.524 325.056 27.949 34.283">
  <defs>
    <style>
      .cls-1 {
        fill: #c6cfda;
      }
    </style>
  </defs>
  <g id="icon" transform="translate(1317.42 325.056)">
    <g id="Group_245" data-name="Group 245" transform="translate(2.104)">
      <path id="Path_693" data-name="Path 693" class="cls-1" d="M18.008,0h.244A7.341,7.341,0,0,1,16.4,5.532,5.731,5.731,0,0,1,11.358,7.9,7.121,7.121,0,0,1,13.24,2.54,8.128,8.128,0,0,1,18.008,0Z" transform="translate(2.564)"/>
      <path id="Path_694" data-name="Path 694" class="cls-1" d="M30.053,22.389v.068a19.946,19.946,0,0,1-2.854,5.5c-1.088,1.5-2.422,3.514-4.8,3.514-2.058,0-3.425-1.323-5.534-1.359-2.231-.036-3.458,1.106-5.5,1.394h-.7a6.212,6.212,0,0,1-3.587-2.472A21.656,21.656,0,0,1,2.1,16.577V15.043A10.047,10.047,0,0,1,6.491,6.8a7.408,7.408,0,0,1,4.974-1.152,12.512,12.512,0,0,1,2.437.7,6.73,6.73,0,0,0,2.436.73,5.847,5.847,0,0,0,1.709-.522,10.513,10.513,0,0,1,5.5-.976,7.628,7.628,0,0,1,5.6,3.342,7.192,7.192,0,0,0-3.654,7.136A7.366,7.366,0,0,0,30.053,22.389Z" transform="translate(-2.104 2.775)"/>
    </g>
  </g>
</svg>
