<svg xmlns="http://www.w3.org/2000/svg" viewBox="4439.5 -252.5 33.5 33.5">
  <defs>
    <style>
      .cls-1 {
        fill: #fff;
      }
    </style>
  </defs>
  <g id="Group_1779" data-name="Group 1779" transform="translate(4369 -287)">
    <g id="painter-palette" transform="translate(70.5 34.5)">
      <g id="palette">
        <path id="Path_4373" data-name="Path 4373" class="cls-1" d="M16.75,0a16.75,16.75,0,0,0,0,33.5,2.862,2.862,0,0,0,2.792-2.792,2.389,2.389,0,0,0-.744-1.861,3.307,3.307,0,0,1-.744-1.861,2.862,2.862,0,0,1,2.792-2.792h3.35A9.215,9.215,0,0,0,33.5,14.889C33.5,6.7,26.056,0,16.75,0ZM6.514,16.75a2.792,2.792,0,0,1,0-5.583,2.792,2.792,0,0,1,0,5.583ZM12.1,9.306A2.862,2.862,0,0,1,9.306,6.514,2.862,2.862,0,0,1,12.1,3.722a2.862,2.862,0,0,1,2.792,2.792A2.862,2.862,0,0,1,12.1,9.306Zm9.306,0a2.862,2.862,0,0,1-2.792-2.792,2.792,2.792,0,0,1,5.583,0A2.862,2.862,0,0,1,21.4,9.306Zm5.583,7.444a2.862,2.862,0,0,1-2.792-2.792,2.792,2.792,0,0,1,5.583,0A2.862,2.862,0,0,1,26.986,16.75Z"/>
      </g>
    </g>
  </g>
</svg>
