<svg xmlns="http://www.w3.org/2000/svg" viewBox="1393.74 1064.441 20.805 28.481">
  <defs>
    <style>
      .cls-1 {
        fill: #000;
      }
    </style>
  </defs>
  <path id="street" class="cls-1" d="M28.891,8.07,26.043,5.222H18.726V4.7a2.373,2.373,0,1,0-.949,0v.523H14.046a1.493,1.493,0,0,0-1.491,1.491V8.07H10.934L8.086,10.918l2.848,2.848h6.842v9.969H15.4v1.9H13.979v2.848h8.544V25.633H21.1v-1.9H18.726V13.766h4.205a1.493,1.493,0,0,0,1.491-1.491V10.918h1.621Zm-12.064-5.7A1.424,1.424,0,1,1,18.251,3.8,1.426,1.426,0,0,1,16.827,2.373Zm4.747,24.209v.949H14.928v-.949h6.646Zm-1.424-.949h-3.8v-.949h3.8Zm3.323-13.359a.542.542,0,0,1-.542.542h-11.6l-1.9-1.9,1.9-1.9h11.6a.542.542,0,0,1,.542.542v2.713Zm.949-2.306V9.561A1.493,1.493,0,0,0,22.931,8.07H13.5V6.713a.542.542,0,0,1,.542-.542h11.6l1.9,1.9-1.9,1.9Z" transform="translate(1385.654 1064.441)"/>
</svg>
