<svg xmlns="http://www.w3.org/2000/svg" viewBox="-1930.994 93.074 23.994 24">
  <defs>
    <style>
      .cls-1 {
        fill: #fff;
      }
    </style>
  </defs>
  <g id="administración_de_servicios" data-name="administración de servicios" transform="translate(-1930.992 93.168)">
    <g id="Capa_1" data-name="Capa 1" transform="translate(-0.001 -0.094)">
      <path id="Path_790" data-name="Path 790" class="cls-1" d="M23.916,10.575a.781.781,0,0,0-.771-.591,2.649,2.649,0,0,1-1.813-4.61.667.667,0,0,0,.073-.9,11.876,11.876,0,0,0-1.9-1.921.668.668,0,0,0-.912.074,2.765,2.765,0,0,1-2.992.672,2.665,2.665,0,0,1-1.62-2.6.666.666,0,0,0-.589-.7,11.972,11.972,0,0,0-2.7-.007A.668.668,0,0,0,10.1.665a2.671,2.671,0,0,1-1.643,2.56,2.772,2.772,0,0,1-2.97-.676.669.669,0,0,0-.905-.076A11.926,11.926,0,0,0,2.64,4.4a.667.667,0,0,0,.072.911A2.658,2.658,0,0,1,3.382,8.3,2.776,2.776,0,0,1,.772,9.92a.653.653,0,0,0-.693.591,12.026,12.026,0,0,0-.005,2.728.793.793,0,0,0,.787.589,2.631,2.631,0,0,1,2.469,1.644,2.671,2.671,0,0,1-.671,2.967.666.666,0,0,0-.073.9,11.918,11.918,0,0,0,1.9,1.921.667.667,0,0,0,.913-.072,2.76,2.76,0,0,1,2.991-.672,2.661,2.661,0,0,1,1.623,2.6.666.666,0,0,0,.589.7,11.945,11.945,0,0,0,2.7.008.668.668,0,0,0,.594-.687,2.666,2.666,0,0,1,1.64-2.558,2.769,2.769,0,0,1,2.971.676.67.67,0,0,0,.905.076,11.941,11.941,0,0,0,1.941-1.919.666.666,0,0,0-.072-.912,2.658,2.658,0,0,1-.671-2.994,2.685,2.685,0,0,1,2.454-1.626l.149,0a.668.668,0,0,0,.7-.589A11.973,11.973,0,0,0,23.916,10.575Zm-6.941,6.34a7.075,7.075,0,0,1-8.568,1.1L8.384,18a3.988,3.988,0,0,1-3.015.814.281.281,0,0,1-.075-.529,3.417,3.417,0,0,0,1.462-1.65l-.047-.047a7.055,7.055,0,1,1,10.266.332Z" transform="translate(0.001 0.094)"/>
      <path id="Path_791" data-name="Path 791" class="cls-1" d="M146.084,140.8a5.4,5.4,0,1,0,3.829,1.581A5.408,5.408,0,0,0,146.084,140.8Zm.121,1.837a.934.934,0,0,1,.91.937.912.912,0,0,1-.91.91.924.924,0,1,1,0-1.847Zm1.581,6.514a.357.357,0,0,1-.127.2,1.938,1.938,0,0,1-1.3.515c-.23,0-.484-.022-.713-.043-.381-.043-.894-.469-.816-.917.047-.288.1-.6.151-.917.127-.538.23-1.078.332-1.614v-.112c0-.224-.078-.314-.332-.336a1.53,1.53,0,0,1-.332-.043.232.232,0,0,1-.176-.2.262.262,0,0,1,.23-.181.831.831,0,0,1,.23-.022h1.831c.23,0,.381.09.381.292a1.588,1.588,0,0,1-.047.495c-.127.607-.254,1.231-.381,1.837a5.362,5.362,0,0,0-.127.607.689.689,0,0,0,.024.314.281.281,0,0,0,.3.181,2.165,2.165,0,0,0,.357-.09c.1-.022.176-.09.278-.112.15-.062.253.029.233.144Z" transform="translate(-134.087 -134.197)"/>
    </g>
  </g>
</svg>
