<svg xmlns="http://www.w3.org/2000/svg" viewBox="3450.137 -245.863 21.727 22.227">
  <defs>
    <style>
      .cls-1, .cls-3 {
        fill: #fff;
      }

      .cls-2 {
        fill: #80738d;
      }

      .cls-3 {
        stroke: #80738d;
        stroke-width: 1px;
      }
    </style>
  </defs>
  <g id="Group_2190" data-name="Group 2190" transform="translate(132.412 -0.588)">
    <g id="happy" transform="translate(3317.725 -245.275)">
      <path id="Path_5567" data-name="Path 5567" class="cls-1" d="M12.933,18.27a6.085,6.085,0,0,0,2.013-1.331,6.006,6.006,0,0,0,1.362-1.878l2.771,2.771c.021.021.035.046.055.067a10.912,10.912,0,1,0-3.741,2.83Z"/>
      <path id="Path_5568" data-name="Path 5568" class="cls-2" d="M11.656,14.1a.517.517,0,0,1-.517-.517,1.552,1.552,0,1,0-3.1,0,.517.517,0,1,1-1.035,0,2.587,2.587,0,1,1,5.173,0A.517.517,0,0,1,11.656,14.1Z" transform="translate(-3.379 -5.31)"/>
      <path id="Path_5569" data-name="Path 5569" class="cls-2" d="M29.656,14.1a.517.517,0,0,1-.517-.517,1.552,1.552,0,1,0-3.1,0,.517.517,0,1,1-1.035,0,2.587,2.587,0,1,1,5.173,0A.517.517,0,0,1,29.656,14.1Z" transform="translate(-12.067 -5.31)"/>
      <g id="Group_2189" data-name="Group 2189" transform="translate(12.933 15.06)">
        <path id="Path_5570" data-name="Path 5570" class="cls-3" d="M27.013,30.991A6.071,6.071,0,0,1,25,32.322l2.853,2.853a2.075,2.075,0,0,0,2.926,0l.366-.366a2.075,2.075,0,0,0,0-2.926l-2.771-2.771A6,6,0,0,1,27.013,30.991Z" transform="translate(-25 -29.112)"/>
      </g>
      <path id="Path_5571" data-name="Path 5571" class="cls-2" d="M30.765,34.869a.516.516,0,0,1-.366-.152l-.06-.059a14.807,14.807,0,0,0-1.8-1.647.5.5,0,0,1-.384-.151.517.517,0,0,1,0-.731c.472-.472,1.119.1,1.638.566.454.4.952.9,1.281,1.232l.059.059a.517.517,0,0,1-.366.883Z" transform="translate(-13.515 -15.423)"/>
      <path id="Path_5572" data-name="Path 5572" class="cls-2" d="M15.208,30.725A6.215,6.215,0,0,1,9,24.517a.517.517,0,1,1,1.035,0,5.173,5.173,0,0,0,10.346,0,.517.517,0,1,1,1.035,0A6.215,6.215,0,0,1,15.208,30.725Z" transform="translate(-4.344 -11.585)"/>
    </g>
  </g>
</svg>
