<svg xmlns="http://www.w3.org/2000/svg" viewBox="2581 768 29.857 29.857">
  <defs>
    <style>
      .cls-1 {
        fill: #fff;
      }
    </style>
  </defs>
  <g id="sun" transform="translate(2581 768)">
    <g id="Group_2182" data-name="Group 2182">
      <g id="Group_2181" data-name="Group 2181">
        <path id="Path_5536" data-name="Path 5536" class="cls-1" d="M112.97,105.985a8.593,8.593,0,1,0,8.593,8.593A8.593,8.593,0,0,0,112.97,105.985Z" transform="translate(-98.041 -99.551)"/>
        <path id="Path_5537" data-name="Path 5537" class="cls-1" d="M234.623,4.687a.781.781,0,0,1-.781.781h0a.781.781,0,0,1-.781-.781V.781A.781.781,0,0,1,233.842,0h0a.781.781,0,0,1,.781.781Z" transform="translate(-218.914)"/>
        <path id="Path_5538" data-name="Path 5538" class="cls-1" d="M234.623,402.559a.781.781,0,0,0-.781-.781h0a.781.781,0,0,0-.781.781v3.906a.781.781,0,0,0,.781.781h0a.781.781,0,0,0,.781-.781Z" transform="translate(-218.914 -377.389)"/>
        <path id="Path_5539" data-name="Path 5539" class="cls-1" d="M402.559,234.669a.781.781,0,0,0-.781.781h0a.781.781,0,0,0,.781.781h3.906a.781.781,0,0,0,.781-.781h0a.781.781,0,0,0-.781-.781Z" transform="translate(-377.389 -220.424)"/>
        <path id="Path_5540" data-name="Path 5540" class="cls-1" d="M.781,233.06a.781.781,0,0,0-.781.781H0a.781.781,0,0,0,.781.781H4.687a.781.781,0,0,0,.781-.781h0a.781.781,0,0,0-.781-.781H.781Z" transform="translate(0 -218.913)"/>
        <path id="Path_5541" data-name="Path 5541" class="cls-1" d="M60.213,71.978a.781.781,0,0,0-1.1,0h0a.781.781,0,0,0,0,1.1l2.762,2.762a.781.781,0,0,0,1.1,0h0a.781.781,0,0,0,0-1.1Z" transform="translate(-55.305 -67.394)"/>
        <path id="Path_5542" data-name="Path 5542" class="cls-1" d="M364.733,71.978a.781.781,0,0,1,1.1,0h0a.781.781,0,0,1,0,1.1l-2.762,2.762a.781.781,0,0,1-1.1,0h0a.781.781,0,0,1,0-1.1Z" transform="translate(-339.784 -67.394)"/>
        <path id="Path_5543" data-name="Path 5543" class="cls-1" d="M60.213,352.972a.781.781,0,0,1-1.1,0h0a.781.781,0,0,1,0-1.1l2.762-2.762a.781.781,0,0,1,1.1,0h0a.781.781,0,0,1,0,1.1Z" transform="translate(-55.305 -327.7)"/>
        <path id="Path_5544" data-name="Path 5544" class="cls-1" d="M364.733,352.972a.781.781,0,0,0,1.1,0h0a.781.781,0,0,0,0-1.1l-2.762-2.762a.781.781,0,0,0-1.1,0h0a.781.781,0,0,0,0,1.1Z" transform="translate(-339.784 -327.7)"/>
      </g>
    </g>
  </g>
</svg>
