<svg xmlns="http://www.w3.org/2000/svg" viewBox="3849.474 766 19.389 30.627">
  <defs>
    <style>
      .cls-1 {
        fill: #fff;
        fill-rule: evenodd;
      }
    </style>
  </defs>
  <g id="Group_2188" data-name="Group 2188" transform="translate(3533 420)">
    <path id="Path_5565" data-name="Path 5565" class="cls-1" d="M91.853,34.28a1.537,1.537,0,1,0,3.066,0L93.876,15.546c1.962-.39,3.5-3.074,3.5-5.513,0-2.635-1.778-4.732-3.986-4.732S89.4,7.4,89.4,10.032c0,2.391,1.533,5.123,3.5,5.513Z" transform="translate(238.492 340.7)"/>
    <path id="Path_5566" data-name="Path 5566" class="cls-1" d="M1.3,35.215a1.537,1.537,0,1,0,3.066,0L3.32,16.529C4.607,16.09,5.4,14.236,5.589,13.5a36.128,36.128,0,0,0-.245-6.1c-.123-.342-.368-.39-.368.049l-.491,5.464a.185.185,0,1,1-.368,0L3.749,7.454c0-.439-.429-.439-.491,0l-.307,5.464c0,.293-.307.244-.307,0L2.339,7.454c0-.439-.429-.439-.491,0L1.48,12.919a.185.185,0,1,1-.368,0L.683,7.454c-.061-.439-.307-.39-.368,0a36.128,36.128,0,0,0-.245,6.1c.123.732.92,2.586,2.269,3.025Z" transform="translate(316.453 339.765)"/>
  </g>
</svg>
