<svg xmlns="http://www.w3.org/2000/svg" viewBox="2983.301 1177.486 23.995 25.736">
  <defs>
    <style>
      .cls-1 {
        fill: none;
        stroke: #000;
        stroke-width: 1px;
      }
    </style>
  </defs>
  <g id="icon" transform="translate(2982.515 1177.705)">
    <g id="Group_647" data-name="Group 647" transform="translate(1.485)">
      <path id="Path_2033" data-name="Path 2033" class="cls-1" d="M13.219,21.268h0a22.814,22.814,0,0,0,6.428-.929,22.676,22.676,0,0,0,2.963-1.126L13.219,0h0L3.829,19.213a22.782,22.782,0,0,0,2.962,1.126A22.81,22.81,0,0,0,13.219,21.268Zm3.258-7.083a1.5,1.5,0,1,1-1.5,1.5A1.5,1.5,0,0,1,16.477,14.185ZM13.894,6.7a1.087,1.087,0,1,1-1.088,1.086A1.088,1.088,0,0,1,13.894,6.7Zm-2.545,4.2A2.545,2.545,0,1,1,8.8,13.444,2.545,2.545,0,0,1,11.348,10.9Z" transform="translate(-1.92)"/>
      <path id="Path_2034" data-name="Path 2034" class="cls-1" d="M22.691,24.7h0a21.089,21.089,0,0,1-9.907,2.322A21.121,21.121,0,0,1,2.877,24.7v0L1.485,26.906a23.955,23.955,0,0,0,11.3,2.7h0a23.92,23.92,0,0,0,11.3-2.7Z" transform="translate(-1.485 -4.587)"/>
    </g>
  </g>
</svg>
