<svg xmlns="http://www.w3.org/2000/svg" viewBox="3032.32 918.797 26.68 22.509">
  <defs>
    <style>
      .cls-1 {
        fill: #000;
      }
    </style>
  </defs>
  <g id="one-hamburguer" transform="translate(3032.32 893.001)">
    <g id="Group_2321" data-name="Group 2321" transform="translate(0 25.796)">
      <g id="Group_2320" data-name="Group 2320" transform="translate(5.857 3.565)">
        <g id="Group_2316" data-name="Group 2316" transform="translate(0 3.056)">
          <g id="Group_2313" data-name="Group 2313">
            <path id="Path_5855" data-name="Path 5855" class="cls-1" d="M73.053,108.906a.606.606,0,1,1,.428-.177A.613.613,0,0,1,73.053,108.906Z" transform="translate(-72.447 -107.693)"/>
          </g>
          <g id="Group_2314" data-name="Group 2314" transform="translate(6.876)">
            <path id="Path_5856" data-name="Path 5856" class="cls-1" d="M158.1,108.906a.6.6,0,1,1,.429-.177A.613.613,0,0,1,158.1,108.906Z" transform="translate(-157.498 -107.693)"/>
          </g>
          <g id="Group_2315" data-name="Group 2315" transform="translate(13.752)">
            <path id="Path_5857" data-name="Path 5857" class="cls-1" d="M243.153,108.906a.606.606,0,1,1,.428-.177A.613.613,0,0,1,243.153,108.906Z" transform="translate(-242.547 -107.693)"/>
          </g>
        </g>
        <g id="Group_2319" data-name="Group 2319" transform="translate(3.618)">
          <g id="Group_2317" data-name="Group 2317">
            <path id="Path_5858" data-name="Path 5858" class="cls-1" d="M117.8,71.106a.606.606,0,1,1,.428-.177A.612.612,0,0,1,117.8,71.106Z" transform="translate(-117.197 -69.893)"/>
          </g>
          <g id="Group_2318" data-name="Group 2318" transform="translate(6.516)">
            <path id="Path_5859" data-name="Path 5859" class="cls-1" d="M198.4,71.106a.606.606,0,1,1,.429-.177A.613.613,0,0,1,198.4,71.106Z" transform="translate(-197.797 -69.893)"/>
          </g>
        </g>
      </g>
      <path id="Path_5860" data-name="Path 5860" class="cls-1" d="M25.2,43.4a2.317,2.317,0,0,0-.672-3.147,2.534,2.534,0,0,0,.152-3.278,3.158,3.158,0,0,0,2-2.933c0-2.262-1.429-4.365-4.024-5.922A18.364,18.364,0,0,0,13.34,25.8,18.364,18.364,0,0,0,4.024,28.12C1.429,29.677,0,31.78,0,34.043a3.158,3.158,0,0,0,2,2.933,2.534,2.534,0,0,0,.153,3.278A2.317,2.317,0,0,0,1.479,43.4,1.853,1.853,0,0,0,0,45.4a2.764,2.764,0,0,0,2.587,2.907H24.094A2.764,2.764,0,0,0,26.68,45.4,1.853,1.853,0,0,0,25.2,43.4ZM2.682,38.525A1.331,1.331,0,0,1,4.012,37.2H22.668a1.33,1.33,0,0,1,1.269,1.727,2.239,2.239,0,0,1-1.123-.537,3.385,3.385,0,0,0-4.369,0,2.186,2.186,0,0,1-2.92,0,3.385,3.385,0,0,0-4.369,0,2.186,2.186,0,0,1-2.92,0,3.3,3.3,0,0,0-2.185-.8,3.3,3.3,0,0,0-2.185.8,2.239,2.239,0,0,1-1.124.537A1.328,1.328,0,0,1,2.682,38.525Zm20.16,1.317a1.326,1.326,0,0,1-.174.013H18.391a4.659,4.659,0,0,0,.779-.5,2.186,2.186,0,0,1,2.92,0A4.72,4.72,0,0,0,22.842,39.842Zm-7.263.013H11.1a4.659,4.659,0,0,0,.779-.5,2.186,2.186,0,0,1,2.92,0A4.656,4.656,0,0,0,15.579,39.855Zm-7.289,0H4.012a1.318,1.318,0,0,1-.174-.013,4.725,4.725,0,0,0,.754-.485,2.187,2.187,0,0,1,2.92,0A4.66,4.66,0,0,0,8.29,39.855ZM3.451,41.068H23.229a1.11,1.11,0,1,1,0,2.22H3.451a1.11,1.11,0,1,1,0-2.22ZM1.213,34.043c0-1.819,1.22-3.553,3.435-4.883a17.144,17.144,0,0,1,8.692-2.151,17.145,17.145,0,0,1,8.692,2.151c2.215,1.329,3.435,3.063,3.435,4.883a1.943,1.943,0,0,1-1.94,1.941H3.153A1.943,1.943,0,0,1,1.213,34.043Zm22.881,13.05H2.587A1.561,1.561,0,0,1,1.213,45.4c0-.542.1-.9,1.374-.9H24.094c1.278,0,1.374.355,1.374.9A1.561,1.561,0,0,1,24.094,47.092Z" transform="translate(0 -25.796)"/>
    </g>
  </g>
</svg>
