<svg xmlns="http://www.w3.org/2000/svg" viewBox="2991.279 883.75 30.106 25.25">
  <defs>
    <style>
      .cls-1 {
        fill: #000;
      }
    </style>
  </defs>
  <g id="sushi" transform="translate(2991.279 860.312)">
    <g id="Group_2323" data-name="Group 2323" transform="translate(0 23.438)">
      <g id="Group_2322" data-name="Group 2322">
        <path id="Path_5861" data-name="Path 5861" class="cls-1" d="M6.313,23.438C2.655,23.438,0,25.889,0,29.265v6.8c0,3.376,2.655,5.827,6.313,5.827s6.313-2.451,6.313-5.827v-6.8C12.625,25.889,9.97,23.438,6.313,23.438Zm5.341,12.625c0,2.813-2.246,4.856-5.341,4.856-2.967,0-5.148-1.878-5.324-4.512a6.3,6.3,0,0,0,5.324,2.57v-.971c-3.1,0-5.341-2.042-5.341-4.856V32.5a6.294,6.294,0,0,0,5.341,2.6,6.294,6.294,0,0,0,5.341-2.6ZM6.313,34.121c-3.1,0-5.341-2.042-5.341-4.856s2.246-4.856,5.341-4.856,5.341,2.042,5.341,4.856S9.408,34.121,6.313,34.121Z" transform="translate(0 -23.438)"/>
        <path id="Path_5862" data-name="Path 5862" class="cls-1" d="M30.474,51.563c-2.172,0-3.52,1.116-3.52,2.913s1.349,2.913,3.52,2.913,3.52-1.116,3.52-2.913S32.646,51.563,30.474,51.563Zm-2.549,2.913a1.74,1.74,0,0,1,.409-1.192L29.7,56.351A1.864,1.864,0,0,1,27.925,54.476Zm1.232-1.732a3.968,3.968,0,0,1,1.317-.211,3.576,3.576,0,0,1,1.657.367l-2.317,1.324Zm1.628,3.663-.574-1.292,2.625-1.5a1.9,1.9,0,0,1,.187.86C33.024,56.022,31.639,56.352,30.785,56.408Z" transform="translate(-24.162 -48.65)"/>
        <path id="Path_5863" data-name="Path 5863" class="cls-1" d="M151.932,123.99l.014-.049-.018,0a2.36,2.36,0,0,0-2.393-2.062h-7.769a2.632,2.632,0,0,0-1.8.628l-3.254,3.254a2.326,2.326,0,0,0-.773,1.945v6.8a2.374,2.374,0,0,0,2.428,2.428h7.769a2.325,2.325,0,0,0,1.945-.773l3.249-3.249a2.383,2.383,0,0,0,.633-1.8v-6.8A2.647,2.647,0,0,0,151.932,123.99Zm-4.388-1.144a5.639,5.639,0,0,0-.9,2.478c-.021,0-.044,0-.066-.008a5.03,5.03,0,0,0-1.024-2.47Zm-3.481,0a3.405,3.405,0,0,1,1.526,2.428H144.9a11.106,11.106,0,0,0-2.055-2.428Zm-3.437.367a1.448,1.448,0,0,1,.636-.308,8.319,8.319,0,0,1,2.471,2.369h-5.166Zm6.966,11.287a1.793,1.793,0,0,1-.218.988l-.125.125.018.018a1.539,1.539,0,0,1-1.132.325h-7.769a1.409,1.409,0,0,1-1.457-1.457v-6.8a1.54,1.54,0,0,1,.325-1.132l.018.018.125-.125a1.793,1.793,0,0,1,.988-.218h7.769a1.409,1.409,0,0,1,1.457,1.457Zm0-8.757a4.565,4.565,0,0,1,1.183-2.9h.759a1.4,1.4,0,0,1,1.4,1.069,8.991,8.991,0,0,1-2.376,3.8V127.7A2.385,2.385,0,0,0,147.592,125.742Zm.971,3.189a7.936,7.936,0,0,0,2.428-2.736v.96c-.1.385-.809,2.931-2.428,4.09Zm2.428,2.169a1.473,1.473,0,0,1-.343,1.113l-2.085,2.085v-1.923a5.987,5.987,0,0,0,2.428-2.581Z" transform="translate(-121.856 -111.677)"/>
        <path id="Path_5864" data-name="Path 5864" class="cls-1" d="M172.149,182.813h-.971a2.431,2.431,0,0,0-2.428,2.428v.971a2.431,2.431,0,0,0,2.428,2.428h.971a2.431,2.431,0,0,0,2.428-2.428v-.971A2.431,2.431,0,0,0,172.149,182.813ZM169.74,186.4a2.271,2.271,0,0,1,1.359,1.263A1.45,1.45,0,0,1,169.74,186.4Zm1.071-.529a4.438,4.438,0,0,0-1.089-.517v-.111a1.458,1.458,0,0,1,1.456-1.457h.971a1.455,1.455,0,0,1,.566.114A2.674,2.674,0,0,0,170.811,185.869Zm1.338,1.8h-.05a2.477,2.477,0,0,0-.435-1,2.4,2.4,0,0,1,.253-.972,2.355,2.355,0,0,0,1.615.953A1.454,1.454,0,0,1,172.149,187.669Zm1.457-2a1.119,1.119,0,0,1-.945-.713,2.074,2.074,0,0,1,.858-.2,1.434,1.434,0,0,1,.088.48Z" transform="translate(-151.269 -166.303)"/>
        <rect id="Rectangle_1805" data-name="Rectangle 1805" class="cls-1" width="1.942" height="0.971" transform="translate(16.51 22.822)"/>
        <rect id="Rectangle_1806" data-name="Rectangle 1806" class="cls-1" width="0.971" height="0.971" transform="translate(19.423 22.822)"/>
        <rect id="Rectangle_1807" data-name="Rectangle 1807" class="cls-1" width="0.971" height="0.971" transform="translate(21.365 22.822)"/>
      </g>
    </g>
  </g>
</svg>
