<svg xmlns="http://www.w3.org/2000/svg" viewBox="2986.895 955.791 31.142 17.923">
  <defs>
    <style>
      .cls-1 {
        fill: none;
        stroke: #000;
        stroke-width: 1px;
      }
    </style>
  </defs>
  <g id="taco-typical-food-of-mexico" transform="translate(2987.403 840.94)">
    <g id="Layer_2_35_" transform="translate(0 115.351)">
      <path id="Path_2035" data-name="Path 2035" class="cls-1" d="M358.486,171.9a2.77,2.77,0,0,1,.513,1.471,4.442,4.442,0,0,1,1.572.917,1.964,1.964,0,0,1,.641,1.148,3.03,3.03,0,0,1,.374-.024,2.181,2.181,0,0,1,2.021,1.228,2.673,2.673,0,0,1-.389,2.852,3.591,3.591,0,0,1,1.085,1.3c.961,1.923.727,2.408-.9,4.036l-.051.051c.537.667,1.43.708,2.748.708a1.781,1.781,0,0,0,1.424-.739c.5-.662.927-2.034.133-4.813C366.7,176.675,363.038,173.131,358.486,171.9Z" transform="translate(-337.969 -168.659)"/>
      <path id="Path_2036" data-name="Path 2036" class="cls-1" d="M25.353,127.966a2.457,2.457,0,0,0-2-1.379c-.046,0-.075,0-.078,0h0l.058-.041c.321-.228,1.958-1.47,1.33-2.726a1.082,1.082,0,0,0-1.041-.623,3.69,3.69,0,0,0-1.68.567l-.055.034s.013-.027.033-.072c.129-.29.567-1.4-.033-1.924a2.8,2.8,0,0,0-1.823-.806h-.02a1.171,1.171,0,0,0-.24.024c.026-.079.041-.152.06-.227.471-1.9-1.475-2.55-2.143-2.55a6.465,6.465,0,0,0-1.04.124c-.426.078-.819.169-.974.206l-.069.017s0-.014,0-.037a3.183,3.183,0,0,0-.175-.852,3.35,3.35,0,0,0-.229-.516,3.518,3.518,0,0,0-2.372-1.72,3.692,3.692,0,0,0-.9-.112,5.67,5.67,0,0,0-3.962,2.195,4.064,4.064,0,0,0-2.079-.665,3.3,3.3,0,0,0-2.781,2.054,2.749,2.749,0,0,0-.658-.092c-1.878,0-.73,2.869-.73,2.869-3.242,1.3-1.035,3.2-.729,3.445,1.591-3.015,4.484-5.668,9.74-5.814.061,0,.164-.011.271-.022.166-.015.341-.031.439-.031,6.142,0,10.121,6.341,12.037,10.4q.092.2.178.384a2.9,2.9,0,0,0,.324.516l.4.095.251.059.259-.259C26.044,129.348,26,129.262,25.353,127.966Z" transform="translate(0 -115.351)"/>
      <path id="Path_2037" data-name="Path 2037" class="cls-1" d="M27.047,213.79a3.317,3.317,0,0,1-.2-.36c-.042-.091-.086-.185-.13-.28-1.786-3.812-5.5-9.862-11.089-9.862-.075,0-.21.014-.337.026s-.265.025-.342.027a9.588,9.588,0,0,0-8.656,5c-.093.165-.181.332-.266.5s-.165.337-.241.507a17.464,17.464,0,0,0-1.372,5.622H28.025c-.158-.154-.314-.322-.465-.5A5.176,5.176,0,0,1,27.047,213.79ZM15.63,207.741a1.041,1.041,0,1,1,1.041,1.042A1.041,1.041,0,0,1,15.63,207.741Zm3.47,4.179a1.038,1.038,0,0,1-2.073.075c0-.03-.009-.057-.009-.088a1.03,1.03,0,0,1,.107-.453,1.042,1.042,0,0,1,.439-.459,1.039,1.039,0,0,1,1.536.911A.117.117,0,0,1,19.1,211.919Zm1.043-1.748a1.041,1.041,0,1,1,1.041-1.041A1.042,1.042,0,0,1,20.143,210.171Z" transform="translate(-4.163 -198.255)"/>
    </g>
  </g>
</svg>
